<svg width="438" height="313" viewBox="0 0 438 313" fill="none" xmlns="http://www.w3.org/2000/svg">
<g clip-path="url(#clip0_4_1853)">
<rect width="313" height="438" transform="translate(438) rotate(90)" fill="#121312"/>
<rect x="420.5" y="17.5" width="278" height="403" rx="15.5" transform="rotate(90 420.5 17.5)" fill="white"/>
<rect x="420.5" y="17.5" width="278" height="403" rx="15.5" transform="rotate(90 420.5 17.5)" stroke="white"/>
<path d="M7.77946 45.548V42.5315H15.5362L24.672 85.5384C25.3615 88.8135 25.9648 92.3471 26.3095 95.7084H27.6885C28.0332 92.4333 28.6365 88.9859 29.4122 85.6246L39.1513 45.4618H51.5621L60.8702 85.5384C61.6459 88.9859 62.2492 92.4333 62.5939 95.7084H63.9729C64.3177 92.3471 65.0071 88.8997 65.6966 85.4522L74.7462 42.5315H82.4168V45.548L70.0059 102H56.7333L47.7699 63.13C46.9942 59.8549 46.3909 56.4936 45.96 52.8738H44.581C44.1501 56.4074 43.5468 59.6825 42.7711 62.8714L33.463 102H20.3627L7.77946 45.548ZM92.2831 102V42.5315H100.385V67.2669H130.205V42.5315H138.307V102H130.205V74.6789H100.385V102H92.2831ZM167.388 42.5315H178.851L199.363 98.9835V102H191.693L186.608 87.4345H159.632L154.547 102H146.962V98.9835L167.388 42.5315ZM169.802 58.2174L162.217 80.0225H184.022L176.438 58.2174C175.231 54.7699 174.456 52.0119 173.766 48.8231H172.473C171.784 52.0119 171.008 54.7699 169.802 58.2174ZM196.436 42.5315H240.736V49.9435H222.636V102H214.535V49.9435H196.436V42.5315Z" fill="#121312"/>
<path d="M215.046 189.553V130.085H223.147V189.553H215.046ZM233.317 170.42H241.419C242.711 179.125 248.658 183.52 257.622 183.52C264.689 183.52 270.894 180.59 270.894 174.126C270.894 168.955 267.016 166.369 262.534 165.076L249.52 161.37C241.419 159.043 235.472 153.441 235.472 145.167C235.472 135.342 244.176 128.533 255.984 128.533C266.93 128.533 275.548 133.963 277.962 144.995V148.012H270.291C269.171 140.513 264.172 136.118 255.984 136.118C249.175 136.118 243.832 139.307 243.832 144.823C243.832 148.873 246.676 152.062 252.192 153.614L265.206 157.32C273.221 159.647 279.254 164.818 279.254 173.867C279.254 184.813 270.205 191.105 257.622 191.105C244.349 191.105 235.903 184.382 233.317 173.437V170.42ZM311.332 189.553V130.085H327.104L338.911 167.576C339.946 170.937 340.635 174.126 341.238 177.573H342.531C343.134 174.126 343.91 170.937 344.944 167.576L356.838 130.085H372.438V189.553H364.336V136.376H362.957L347.358 184.985H336.326L320.812 136.376H319.433V189.553H311.332ZM379.698 133.101V130.085H387.541L399.434 150.339C401.244 153.355 402.709 156.199 403.399 158.612H404.605C405.295 156.199 406.674 153.183 408.398 150.339L420.464 130.085H427.876V133.101L407.967 165.852V189.553H399.865V165.852L379.698 133.101Z" fill="#121312"/>
<path d="M77.285 276.911V217.442H93.0571L104.865 254.933C105.899 258.294 106.588 261.483 107.192 264.931H108.484C109.088 261.483 109.863 258.294 110.898 254.933L122.791 217.442H138.391V276.911H130.29V223.734H128.911L113.311 272.343H102.279L86.7655 223.734H85.3865V276.911H77.285ZM167.456 217.442H178.919L199.431 273.894V276.911H191.761L186.676 262.345H159.699L154.614 276.911H147.03V273.894L167.456 217.442ZM169.869 233.128L162.285 254.933H184.09L176.506 233.128C175.299 229.68 174.523 226.923 173.834 223.734H172.541C171.852 226.923 171.076 229.68 169.869 233.128ZM196.504 217.442H240.803V224.854H222.704V276.911H214.603V224.854H196.504V217.442ZM271.299 215.891C283.882 215.891 293.363 223.303 296.724 234.765V238.213H288.795C286.813 229.25 280.349 223.475 271.299 223.475C259.405 223.475 250.959 233.473 250.959 247.176C250.959 260.88 259.405 270.878 271.299 270.878C280.349 270.878 287.071 265.017 288.967 255.967H296.983V259.415C293.535 270.964 283.882 278.462 271.299 278.462C254.493 278.462 242.599 265.275 242.599 247.176C242.599 229.077 254.493 215.891 271.299 215.891ZM306.975 276.911V217.442H315.076V242.177H344.897V217.442H352.998V276.911H344.897V249.59H315.076V276.911H306.975ZM361.482 236.058V232.783C362.861 223.044 369.411 215.891 381.132 215.891C392.25 215.891 399.576 222.613 399.576 232.094C399.576 240.368 394.405 244.505 390.009 247.521C385.614 250.451 382.856 253.209 382.856 258.381V260.88H375.616V258.036C375.616 250.107 378.891 246.142 383.459 243.039C387.855 240.109 391.474 237.265 391.474 232.18C391.474 227.181 387.682 223.303 381.046 223.303C373.117 223.303 369.324 228.819 368.98 236.058H361.482ZM374.754 276.911V267.516H383.718V276.911H374.754Z" fill="#121312"/>
<path d="M24.7237 235.148V231.873C26.1027 222.134 32.6529 214.98 44.3742 214.98C55.4922 214.98 62.8181 221.703 62.8181 231.183C62.8181 239.457 57.6469 243.594 53.2514 246.61C48.8559 249.541 46.0979 252.299 46.0979 257.47V259.969H38.8583V257.125C38.8583 249.196 42.1334 245.232 46.7012 242.129C51.0967 239.198 54.7165 236.354 54.7165 231.269C54.7165 226.271 50.9243 222.392 44.288 222.392C36.3589 222.392 32.5667 227.908 32.2219 235.148H24.7237ZM37.9964 276V266.606H46.9598V276H37.9964Z" fill="#121312"/>
<rect x="393.244" y="30" width="39.2" height="127.2" rx="19.6" transform="rotate(75 393.244 30)" fill="#5FDDFF"/>
<path d="M283.636 74.443L291.58 72.3145L291.936 73.6436L288.69 74.5132L291.192 83.8479L289.739 84.2372L287.238 74.9025L283.992 75.7721L283.636 74.443ZM297.159 70.5213C300.188 69.7097 302.97 71.4986 303.84 74.7442C304.709 77.9897 303.195 80.9299 300.166 81.7415C297.137 82.5532 294.355 80.7642 293.485 77.5187C292.615 74.2732 294.13 71.333 297.159 70.5213ZM297.524 71.8814C295.375 72.457 294.326 74.6597 294.984 77.117C295.643 79.5743 297.653 80.9571 299.801 80.3815C301.95 79.8059 302.999 77.6032 302.341 75.1458C301.682 72.6885 299.672 71.3057 297.524 71.8814ZM305.936 75.7727C304.897 71.8935 305.499 68.9493 307.566 67.4513L308.014 67.3312L308.32 68.4749C306.769 69.4868 306.331 72.0557 307.234 75.4248C308.137 78.794 309.801 80.7997 311.65 80.9006L311.956 82.0442L311.508 82.1643C308.969 81.9004 306.975 79.6518 305.936 75.7727ZM312.472 66.7164L314.527 66.1657L320.918 75.303L321.063 75.8439L319.688 76.2125L318.076 73.8449L313.239 75.1411L313.027 77.9973L311.667 78.3617L311.522 77.8208L312.472 66.7164ZM313.658 69.4133L313.346 73.6878L317.256 72.6401L314.848 69.0944C314.466 68.5342 314.195 68.0769 313.918 67.5382L313.686 67.6003C313.716 68.2053 313.709 68.7371 313.658 69.4133ZM322.768 75.387L319.911 64.7232L323.435 63.779C326.866 62.8597 329.15 64.5833 329.994 67.736C330.839 70.8888 329.723 73.5235 326.292 74.4428L322.768 75.387ZM321.72 65.663L323.865 73.6686L325.982 73.1013C328.532 72.418 329.1 70.3941 328.495 68.1377C327.891 65.8813 326.387 64.4124 323.837 65.0957L321.72 65.663ZM333.427 72.5309L330.57 61.8671L334.094 60.9229C337.525 60.0036 339.809 61.7272 340.653 64.88C341.498 68.0328 340.382 70.6674 336.951 71.5867L333.427 72.5309ZM332.379 62.8069L334.524 70.8125L336.641 70.2452C339.191 69.5619 339.759 67.5381 339.154 65.2817C338.55 63.0253 337.046 61.5563 334.496 62.2396L332.379 62.8069ZM344.086 69.6748L341.229 59.011L345.819 57.7811C347.952 57.2096 349.536 58.1766 349.979 59.8302C350.286 60.9739 349.93 61.9967 348.976 62.6997L349.038 62.9315C350.245 62.9229 350.72 63.7066 350.993 64.7267L351.767 67.6167L350.315 68.006L349.54 65.1159C349.238 63.9877 348.588 63.6649 347.553 63.9423L344.338 64.8037L345.539 69.2856L344.086 69.6748ZM346.005 59.1558L343.038 59.9509L343.982 63.4746L346.949 62.6795C348.309 62.3151 348.81 61.4023 348.533 60.3669C348.255 59.3314 347.365 58.7914 346.005 59.1558ZM354.232 66.9563L351.375 56.2924L358.33 54.429L358.686 55.7581L353.184 57.2323L354.037 60.416L358.874 59.1198L359.23 60.4489L354.393 61.7451L355.329 65.2379L360.939 63.7347L361.295 65.0638L354.232 66.9563ZM361.815 61.2472L363.268 60.8579C363.918 62.3567 365.195 62.8592 366.803 62.4285C368.07 62.0889 369.042 61.2653 368.731 60.1062C368.483 59.1789 367.663 58.9016 366.797 58.8851L364.286 58.8459C362.721 58.8179 361.386 58.0991 360.988 56.6154C360.516 54.8535 361.75 53.2144 363.867 52.647C365.83 52.1211 367.636 52.6806 368.599 54.5429L368.744 55.0838L367.368 55.4524C366.807 54.1617 365.7 53.6136 364.231 54.0071C363.011 54.3342 362.206 55.1628 362.471 56.1519C362.665 56.8783 363.328 57.3134 364.392 57.3266L366.904 57.3658C368.453 57.398 369.783 58.0354 370.218 59.6582C370.744 61.6209 369.424 63.1839 367.167 63.7885C364.787 64.4263 362.95 63.6266 361.96 61.7881L361.815 61.2472ZM371.433 58.6701L372.885 58.2809C373.535 59.7797 374.813 60.2822 376.42 59.8515C377.688 59.5119 378.66 58.6883 378.349 57.5292C378.101 56.6019 377.281 56.3246 376.415 56.3081L373.903 56.2689C372.339 56.2408 371.003 55.522 370.606 54.0384C370.134 52.2765 371.367 50.6373 373.485 50.07C375.447 49.5441 377.254 50.1036 378.217 51.9659L378.362 52.5068L376.986 52.8754C376.425 51.5846 375.317 51.0366 373.849 51.43C372.628 51.7572 371.823 52.5857 372.088 53.5749C372.283 54.3012 372.946 54.7364 374.01 54.7496L376.521 54.7888C378.071 54.821 379.401 55.4584 379.836 57.0811C380.362 59.0439 379.041 60.6069 376.785 61.2115C374.405 61.8492 372.567 61.0496 371.578 59.2111L371.433 58.6701ZM384.599 54.6949C385.639 58.574 385.036 61.5183 382.97 63.0163L382.521 63.1363L382.215 61.9927C383.766 60.9808 384.204 58.4119 383.301 55.0427C382.398 51.6736 380.735 49.6679 378.886 49.567L378.579 48.4234L379.027 48.3033C381.566 48.5672 383.56 50.8157 384.599 54.6949ZM386.21 52.5406L385.759 50.8561L387.366 50.4254L387.817 52.11L386.21 52.5406ZM387.672 57.9962L387.22 56.3116L388.828 55.8809L389.279 57.5655L387.672 57.9962Z" fill="#121312"/>
<rect x="174.352" y="152.334" width="39.2" height="117.2" rx="19.6" transform="rotate(105 174.352 152.334)" fill="#12FF80"/>
<path d="M65.3305 145.947L66.7832 146.336C66.5968 147.959 67.452 149.033 69.0593 149.464C70.3266 149.804 71.5801 149.576 71.8907 148.417C72.1392 147.49 71.568 146.84 70.8264 146.393L68.6708 145.103C67.3299 144.296 66.5327 143.006 66.9302 141.522C67.4023 139.76 69.2904 138.958 71.4077 139.525C73.3704 140.051 74.655 141.439 74.5577 143.533L74.4128 144.074L73.0373 143.705C73.1967 142.307 72.5115 141.279 71.0433 140.885C69.8223 140.558 68.7109 140.873 68.4459 141.862C68.2513 142.589 68.608 143.297 69.5226 143.84L71.6782 145.13C73.0037 145.933 73.8371 147.15 73.4023 148.772C72.8763 150.735 70.9513 151.429 68.6949 150.824C66.3148 150.186 65.1233 148.575 65.1856 146.488L65.3305 145.947ZM74.6915 152.133L77.5489 141.469L84.5035 143.332L84.1474 144.661L78.6455 143.187L77.7924 146.371L82.6298 147.667L82.2737 148.996L77.4363 147.7L76.5004 151.193L82.1105 152.696L81.7544 154.025L74.6915 152.133ZM83.9318 154.609L86.7892 143.945L89.5865 144.694L91.0508 155.241L91.2826 155.303L93.8211 145.829L95.2739 146.218L92.4165 156.882L89.681 156.149L88.1714 145.524L87.9396 145.462L85.3846 154.998L83.9318 154.609ZM94.9832 157.57L97.8406 146.906L101.364 147.85C104.795 148.769 105.911 151.404 105.067 154.557C104.222 157.71 101.938 159.433 98.5069 158.514L94.9832 157.57ZM98.9372 148.624L96.7921 156.63L98.9094 157.197C101.459 157.881 102.963 156.412 103.567 154.155C104.172 151.899 103.605 149.875 101.054 149.192L98.9372 148.624ZM111.529 150.574L119.472 152.702L119.116 154.031L115.871 153.162L113.37 162.496L111.917 162.107L114.418 152.772L111.173 151.903L111.529 150.574ZM125.201 153.939C128.23 154.751 129.745 157.691 128.875 160.936C128.005 164.182 125.224 165.971 122.194 165.159C119.165 164.348 117.651 161.407 118.52 158.162C119.39 154.916 122.172 153.127 125.201 153.939ZM124.837 155.299C122.688 154.723 120.678 156.106 120.019 158.563C119.361 161.021 120.411 163.224 122.559 163.799C124.707 164.375 126.718 162.992 127.376 160.535C128.034 158.077 126.985 155.875 124.837 155.299ZM139.817 158.733L135.156 161.725L137.357 168.344L137.212 168.885L135.837 168.516L133.939 162.492L131.793 163.888L130.907 167.195L129.454 166.806L132.311 156.142L133.764 156.532L132.377 161.709L132.562 161.759L138.617 157.832L139.962 158.192L139.817 158.733ZM138.891 169.335L141.748 158.671L148.703 160.534L148.346 161.863L142.845 160.389L141.991 163.573L146.829 164.869L146.473 166.198L141.635 164.902L140.699 168.395L146.31 169.898L145.953 171.227L138.891 169.335ZM148.131 171.811L150.988 161.147L153.786 161.896L155.25 172.443L155.482 172.505L158.02 163.031L159.473 163.42L156.616 174.084L153.88 173.351L152.37 162.726L152.139 162.664L149.584 172.2L148.131 171.811Z" fill="#121312"/>
<g clip-path="url(#clip1_4_1853)">
<rect width="451" height="17" transform="translate(438 -163) rotate(90)" fill="#121312"/>
<path d="M435.846 9.32654C436.051 9.35094 436.051 9.64906 435.846 9.67346L434.122 9.87797C431.897 10.142 430.142 11.8968 429.878 14.1223L429.673 15.8459C429.649 16.0514 429.351 16.0514 429.327 15.8459L429.122 14.1223C428.858 11.8968 427.103 10.142 424.878 9.87797L423.154 9.67346C422.949 9.64906 422.949 9.35094 423.154 9.32654L424.878 9.12203C427.103 8.85795 428.858 7.10325 429.122 4.87766L429.327 3.15409C429.351 2.94864 429.649 2.94864 429.673 3.15409L429.878 4.87766C430.142 7.10325 431.897 8.85795 434.122 9.12203L435.846 9.32654Z" fill="white"/>
<path d="M424 21.2443L433.66 21.2443L433.66 22.5603L429.642 22.5603L429.642 27.4043L433.66 27.4043L433.66 28.7203L424 28.7203L424 27.4043L428.438 27.4043L428.438 22.5603L424 22.5603L424 21.2443ZM427.71 30.7004L433.66 30.7004L433.66 32.0164L427.668 32.0164C425.96 32.0164 424.98 32.8984 424.98 34.4384C424.98 35.9784 425.96 36.8604 427.668 36.8604L433.66 36.8604L433.66 38.1764L427.71 38.1764C425.19 38.1764 423.748 36.8184 423.748 34.4384C423.748 32.0584 425.19 30.7004 427.71 30.7004ZM424 40.1525L433.66 40.1525L433.66 42.7145L427.57 44.6325C427.024 44.8005 426.506 44.9125 425.946 45.0105L425.946 45.2205C426.506 45.3185 427.024 45.4445 427.57 45.6125L433.66 47.5445L433.66 50.0785L424 50.0785L424 48.7625L432.638 48.7625L432.638 48.5385L424.742 46.0045L424.742 44.2125L432.638 41.6925L432.638 41.4685L424 41.4685L424 40.1525ZM433.66 54.7998L433.66 56.6618L424.49 59.9938L424 59.9938L424 58.7478L426.366 57.9218L426.366 53.5398L424 52.7138L424 51.4818L424.49 51.4818L433.66 54.7998ZM431.112 55.1918L427.57 53.9598L427.57 57.5018L431.112 56.2698C431.672 56.0738 432.12 55.9478 432.638 55.8358L432.638 55.6258C432.12 55.5138 431.672 55.3878 431.112 55.1918ZM424 61.3986L433.66 61.3986L433.66 63.9326L425.078 67.5586L425.078 67.7686L433.66 67.7686L433.66 69.0846L424 69.0846L424 66.6066L432.638 62.9246L432.638 62.7146L424 62.7146L424 61.3986ZM426.772 70.8777L427.92 70.8777L427.92 74.4337L426.772 74.4337L426.772 70.8777ZM424 76.219L433.66 76.219L433.66 80.377C433.66 82.309 432.484 83.429 430.986 83.429C429.95 83.429 429.166 82.897 428.788 81.931L428.578 81.931C428.312 82.953 427.542 83.177 426.618 83.177L424 83.177L424 81.861L426.618 81.861C427.64 81.861 428.06 81.385 428.06 80.447L428.06 77.535L424 77.535L424 76.219ZM432.456 80.223L432.456 77.535L429.264 77.535L429.264 80.223C429.264 81.455 429.922 82.085 430.86 82.085C431.798 82.085 432.456 81.455 432.456 80.223ZM424 85.2697L433.66 85.2697L433.66 91.5697L432.456 91.5697L432.456 86.5857L429.572 86.5857L429.572 90.9677L428.368 90.9677L428.368 86.5857L425.204 86.5857L425.204 91.6677L424 91.6677L424 85.2697ZM433.66 95.9658L433.66 97.8278L424.49 101.16L424 101.16L424 99.9138L426.366 99.0878L426.366 94.7058L424 93.8798L424 92.6478L424.49 92.6478L433.66 95.9658ZM431.112 96.3578L427.57 95.1258L427.57 98.6678L431.112 97.4358C431.672 97.2398 432.12 97.1138 432.638 97.0018L432.638 96.7918C432.12 96.6798 431.672 96.5538 431.112 96.3578ZM424 102.565L433.66 102.565L433.66 105.757C433.66 108.865 431.686 110.405 428.83 110.405C425.974 110.405 424 108.865 424 105.757L424 102.565ZM432.456 103.881L425.204 103.881L425.204 105.799C425.204 108.109 426.786 109.047 428.83 109.047C430.874 109.047 432.456 108.109 432.456 105.799L432.456 103.881ZM433.66 114.464L433.66 116.326L424.49 119.658L424 119.658L424 118.412L426.366 117.586L426.366 113.204L424 112.378L424 111.146L424.49 111.146L433.66 114.464ZM431.112 114.856L427.57 113.624L427.57 117.166L431.112 115.934C431.672 115.738 432.12 115.612 432.638 115.5L432.638 115.29C432.12 115.178 431.672 115.052 431.112 114.856ZM424 121.063L433.66 121.063L433.66 125.137C433.66 126.887 432.666 128.007 431.21 128.007C430.286 128.007 429.558 127.559 429.208 126.677L429.012 126.677C428.676 127.783 427.822 128.399 426.66 128.399C425.232 128.399 424 127.461 424 125.165L424 121.063ZM432.456 124.983L432.456 122.379L429.628 122.379L429.628 124.983C429.628 126.075 430.202 126.677 431.042 126.677C431.896 126.677 432.456 126.089 432.456 124.983ZM428.424 125.165L428.424 122.379L425.204 122.379L425.204 125.165C425.204 126.411 425.792 127.055 426.814 127.055C427.794 127.055 428.424 126.411 428.424 125.165ZM424 130.086L433.66 130.086L433.66 131.402L425.204 131.402L425.204 135.938L424 135.938L424 130.086ZM424 137.237L433.66 137.237L433.66 143.537L432.456 143.537L432.456 138.553L429.572 138.553L429.572 142.935L428.368 142.935L428.368 138.553L425.204 138.553L425.204 143.635L424 143.635L424 137.237ZM427.108 148.435L427.108 149.751C425.694 149.961 424.98 150.927 424.98 152.383C424.98 153.531 425.456 154.539 426.506 154.539C427.346 154.539 427.766 153.909 427.976 153.181L428.578 151.067C428.956 149.751 429.866 148.785 431.21 148.785C432.806 148.785 433.912 150.199 433.912 152.117C433.912 153.895 433.03 155.295 431.238 155.687L430.748 155.687L430.748 154.441C431.966 154.259 432.68 153.447 432.68 152.117C432.68 151.011 432.162 150.143 431.266 150.143C430.608 150.143 430.09 150.605 429.838 151.501L429.236 153.615C428.858 154.917 428.018 155.897 426.548 155.897C424.77 155.897 423.748 154.427 423.748 152.383C423.748 150.227 424.84 148.855 426.618 148.435L427.108 148.435ZM433.66 160.005L433.66 161.867L424.49 165.199L424 165.199L424 163.953L426.366 163.127L426.366 158.745L424 157.919L424 156.687L424.49 156.687L433.66 160.005ZM431.112 160.397L427.57 159.165L427.57 162.707L431.112 161.475C431.672 161.279 432.12 161.153 432.638 161.041L432.638 160.831C432.12 160.719 431.672 160.593 431.112 160.397ZM424 166.604L433.66 166.604L433.66 172.904L432.456 172.904L432.456 167.92L429.334 167.92L429.334 172.302L428.13 172.302L428.13 167.92L424 167.92L424 166.604ZM424 174.383L433.66 174.383L433.66 180.683L432.456 180.683L432.456 175.699L429.572 175.699L429.572 180.081L428.368 180.081L428.368 175.699L425.204 175.699L425.204 180.781L424 180.781L424 174.383ZM433.66 185.217L433.66 192.413L432.456 192.413L432.456 189.473L424 189.473L424 188.157L432.456 188.157L432.456 185.217L433.66 185.217ZM424 193.701L433.66 193.701L433.66 197.859C433.66 199.791 432.484 200.911 430.986 200.911C429.95 200.911 429.166 200.379 428.788 199.413L428.578 199.413C428.312 200.435 427.542 200.659 426.618 200.659L424 200.659L424 199.343L426.618 199.343C427.64 199.343 428.06 198.867 428.06 197.929L428.06 195.017L424 195.017L424 193.701ZM432.456 197.705L432.456 195.017L429.264 195.017L429.264 197.705C429.264 198.937 429.922 199.567 430.86 199.567C431.798 199.567 432.456 198.937 432.456 197.705ZM433.66 205.286L433.66 207.148L424.49 210.48L424 210.48L424 209.234L426.366 208.408L426.366 204.026L424 203.2L424 201.968L424.49 201.968L433.66 205.286ZM431.112 205.678L427.57 204.446L427.57 207.988L431.112 206.756C431.672 206.56 432.12 206.434 432.638 206.322L432.638 206.112C432.12 206 431.672 205.874 431.112 205.678ZM424 211.885L433.66 211.885L433.66 214.419L425.078 218.045L425.078 218.255L433.66 218.255L433.66 219.571L424 219.571L424 217.093L432.638 213.411L432.638 213.201L424 213.201L424 211.885ZM427.108 221.224L427.108 222.54C425.694 222.75 424.98 223.716 424.98 225.172C424.98 226.32 425.456 227.328 426.506 227.328C427.346 227.328 427.766 226.698 427.976 225.97L428.578 223.856C428.956 222.54 429.866 221.574 431.21 221.574C432.806 221.574 433.912 222.988 433.912 224.906C433.912 226.684 433.03 228.084 431.238 228.476L430.748 228.476L430.748 227.23C431.966 227.048 432.68 226.236 432.68 224.906C432.68 223.8 432.162 222.932 431.266 222.932C430.608 222.932 430.09 223.394 429.838 224.29L429.236 226.404C428.858 227.706 428.018 228.686 426.548 228.686C424.77 228.686 423.748 227.216 423.748 225.172C423.748 223.016 424.84 221.644 426.618 221.224L427.108 221.224ZM433.66 232.794L433.66 234.656L424.49 237.988L424 237.988L424 236.742L426.366 235.916L426.366 231.534L424 230.708L424 229.476L424.49 229.476L433.66 232.794ZM431.112 233.186L427.57 231.954L427.57 235.496L431.112 234.264C431.672 234.068 432.12 233.942 432.638 233.83L432.638 233.62C432.12 233.508 431.672 233.382 431.112 233.186ZM433.912 243.195C433.912 245.239 432.708 246.779 430.846 247.325L430.286 247.325L430.286 246.037C431.742 245.715 432.68 244.665 432.68 243.195C432.68 241.263 431.056 239.891 428.83 239.891C426.604 239.891 424.98 241.263 424.98 243.195C424.98 244.665 425.932 245.757 427.402 246.065L427.402 247.367L426.842 247.367C424.966 246.807 423.748 245.239 423.748 243.195C423.748 240.465 425.89 238.533 428.83 238.533C431.77 238.533 433.912 240.465 433.912 243.195ZM433.66 247.889L433.66 255.085L432.456 255.085L432.456 252.145L424 252.145L424 250.829L432.456 250.829L432.456 247.889L433.66 247.889ZM424 256.373L433.66 256.373L433.66 257.689L424 257.689L424 256.373ZM433.912 264.059C433.912 266.803 431.77 268.749 428.83 268.749C425.89 268.749 423.748 266.803 423.748 264.059C423.748 261.315 425.89 259.369 428.83 259.369C431.77 259.369 433.912 261.315 433.912 264.059ZM432.68 264.059C432.68 262.113 431.056 260.727 428.83 260.727C426.604 260.727 424.98 262.113 424.98 264.059C424.98 266.005 426.604 267.391 428.83 267.391C431.056 267.391 432.68 266.005 432.68 264.059ZM424 270.428L433.66 270.428L433.66 272.962L425.078 276.588L425.078 276.798L433.66 276.798L433.66 278.114L424 278.114L424 275.636L432.638 271.954L432.638 271.744L424 271.744L424 270.428ZM427.108 279.767L427.108 281.083C425.694 281.293 424.98 282.259 424.98 283.715C424.98 284.863 425.456 285.871 426.506 285.871C427.346 285.871 427.766 285.241 427.976 284.513L428.578 282.399C428.956 281.083 429.866 280.117 431.21 280.117C432.806 280.117 433.912 281.531 433.912 283.449C433.912 285.227 433.03 286.627 431.238 287.019L430.748 287.019L430.748 285.773C431.966 285.591 432.68 284.779 432.68 283.449C432.68 282.343 432.162 281.475 431.266 281.475C430.608 281.475 430.09 281.937 429.838 282.833L429.236 284.947C428.858 286.249 428.018 287.229 426.548 287.229C424.77 287.229 423.748 285.759 423.748 283.715C423.748 281.559 424.84 280.187 426.618 279.767L427.108 279.767Z" fill="white"/>
</g>
<g clip-path="url(#clip2_4_1853)">
<rect width="589" height="17" transform="translate(17 -266) rotate(90)" fill="#121312"/>
<path d="M3 -247.756L12.66 -247.756L12.66 -246.44L8.642 -246.44L8.642 -241.596L12.66 -241.596L12.66 -240.28L3 -240.28L3 -241.596L7.438 -241.596L7.438 -246.44L3 -246.44L3 -247.756ZM6.71 -238.3L12.66 -238.3L12.66 -236.984L6.668 -236.984C4.96 -236.984 3.98 -236.102 3.98 -234.562C3.98 -233.022 4.96 -232.14 6.668 -232.14L12.66 -232.14L12.66 -230.824L6.71 -230.824C4.19 -230.824 2.748 -232.182 2.748 -234.562C2.748 -236.942 4.19 -238.3 6.71 -238.3ZM3 -228.847L12.66 -228.847L12.66 -226.285L6.57 -224.367C6.024 -224.199 5.506 -224.087 4.946 -223.989L4.946 -223.779C5.506 -223.681 6.024 -223.555 6.57 -223.387L12.66 -221.455L12.66 -218.921L3 -218.921L3 -220.237L11.638 -220.237L11.638 -220.461L3.742 -222.995L3.742 -224.787L11.638 -227.307L11.638 -227.531L3 -227.531L3 -228.847ZM12.66 -214.2L12.66 -212.338L3.49 -209.006L3 -209.006L3 -210.252L5.366 -211.078L5.366 -215.46L3 -216.286L3 -217.518L3.49 -217.518L12.66 -214.2ZM10.112 -213.808L6.57 -215.04L6.57 -211.498L10.112 -212.73C10.672 -212.926 11.12 -213.052 11.638 -213.164L11.638 -213.374C11.12 -213.486 10.672 -213.612 10.112 -213.808ZM3 -207.601L12.66 -207.601L12.66 -205.067L4.078 -201.441L4.078 -201.231L12.66 -201.231L12.66 -199.915L3 -199.915L3 -202.393L11.638 -206.075L11.638 -206.285L3 -206.285L3 -207.601ZM5.772 -198.122L6.92 -198.122L6.92 -194.566L5.772 -194.566L5.772 -198.122ZM3 -192.781L12.66 -192.781L12.66 -188.623C12.66 -186.691 11.484 -185.571 9.986 -185.571C8.95 -185.571 8.166 -186.103 7.788 -187.069L7.578 -187.069C7.312 -186.047 6.542 -185.823 5.618 -185.823L3 -185.823L3 -187.139L5.618 -187.139C6.64 -187.139 7.06 -187.615 7.06 -188.553L7.06 -191.465L3 -191.465L3 -192.781ZM11.456 -188.777L11.456 -191.465L8.264 -191.465L8.264 -188.777C8.264 -187.545 8.922 -186.915 9.86 -186.915C10.798 -186.915 11.456 -187.545 11.456 -188.777ZM3 -183.73L12.66 -183.73L12.66 -177.43L11.456 -177.43L11.456 -182.414L8.572 -182.414L8.572 -178.032L7.368 -178.032L7.368 -182.414L4.204 -182.414L4.204 -177.332L3 -177.332L3 -183.73ZM12.66 -173.034L12.66 -171.172L3.49 -167.84L3 -167.84L3 -169.086L5.366 -169.912L5.366 -174.294L3 -175.12L3 -176.352L3.49 -176.352L12.66 -173.034ZM10.112 -172.642L6.57 -173.874L6.57 -170.332L10.112 -171.564C10.672 -171.76 11.12 -171.886 11.638 -171.998L11.638 -172.208C11.12 -172.32 10.672 -172.446 10.112 -172.642ZM3 -166.435L12.66 -166.435L12.66 -163.243C12.66 -160.135 10.686 -158.595 7.83 -158.595C4.974 -158.595 3 -160.135 3 -163.243L3 -166.435ZM11.456 -165.119L4.204 -165.119L4.204 -163.201C4.204 -160.891 5.786 -159.953 7.83 -159.953C9.874 -159.953 11.456 -160.891 11.456 -163.201L11.456 -165.119ZM12.66 -154.536L12.66 -152.674L3.49 -149.342L3 -149.342L3 -150.588L5.366 -151.414L5.366 -155.796L3 -156.622L3 -157.854L3.49 -157.854L12.66 -154.536ZM10.112 -154.144L6.57 -155.376L6.57 -151.834L10.112 -153.066C10.672 -153.262 11.12 -153.388 11.638 -153.5L11.638 -153.71C11.12 -153.822 10.672 -153.948 10.112 -154.144ZM3 -147.937L12.66 -147.937L12.66 -143.863C12.66 -142.113 11.666 -140.993 10.21 -140.993C9.286 -140.993 8.558 -141.441 8.208 -142.323L8.012 -142.323C7.676 -141.217 6.822 -140.601 5.66 -140.601C4.232 -140.601 3 -141.539 3 -143.835L3 -147.937ZM11.456 -144.017L11.456 -146.621L8.628 -146.621L8.628 -144.017C8.628 -142.925 9.202 -142.323 10.042 -142.323C10.896 -142.323 11.456 -142.911 11.456 -144.017ZM7.424 -143.835L7.424 -146.621L4.204 -146.621L4.204 -143.835C4.204 -142.589 4.792 -141.945 5.814 -141.945C6.794 -141.945 7.424 -142.589 7.424 -143.835ZM3 -138.914L12.66 -138.914L12.66 -137.598L4.204 -137.598L4.20399 -133.062L2.99999 -133.062L3 -138.914ZM2.99999 -131.763L12.66 -131.763L12.66 -125.463L11.456 -125.463L11.456 -130.447L8.572 -130.447L8.572 -126.065L7.36799 -126.065L7.36799 -130.447L4.20399 -130.447L4.20399 -125.365L2.99999 -125.365L2.99999 -131.763ZM6.10799 -120.565L6.10799 -119.249C4.69399 -119.039 3.97999 -118.073 3.97999 -116.617C3.97999 -115.469 4.45599 -114.461 5.50599 -114.461C6.34599 -114.461 6.76599 -115.091 6.97599 -115.819L7.57799 -117.933C7.95599 -119.249 8.86599 -120.215 10.21 -120.215C11.806 -120.215 12.912 -118.801 12.912 -116.883C12.912 -115.105 12.03 -113.705 10.238 -113.313L9.74799 -113.313L9.74799 -114.559C10.966 -114.741 11.68 -115.553 11.68 -116.883C11.68 -117.989 11.162 -118.857 10.266 -118.857C9.60799 -118.857 9.08999 -118.395 8.83799 -117.499L8.23599 -115.385C7.85799 -114.083 7.01799 -113.103 5.54799 -113.103C3.76999 -113.103 2.74799 -114.573 2.74799 -116.617C2.74799 -118.773 3.83999 -120.145 5.61799 -120.565L6.10799 -120.565ZM12.66 -108.995L12.66 -107.133L3.48999 -103.801L2.99999 -103.801L2.99999 -105.047L5.36599 -105.873L5.36599 -110.255L2.99999 -111.081L2.99999 -112.313L3.48999 -112.313L12.66 -108.995ZM10.112 -108.603L6.56999 -109.835L6.56999 -106.293L10.112 -107.525C10.672 -107.721 11.12 -107.847 11.638 -107.959L11.638 -108.169C11.12 -108.281 10.672 -108.407 10.112 -108.603ZM2.99999 -102.396L12.66 -102.396L12.66 -96.0963L11.456 -96.0963L11.456 -101.08L8.33399 -101.08L8.33399 -96.6983L7.12999 -96.6983L7.12999 -101.08L2.99999 -101.08L2.99999 -102.396ZM2.99999 -94.617L12.66 -94.617L12.66 -88.317L11.456 -88.317L11.456 -93.301L8.57199 -93.301L8.57199 -88.919L7.36799 -88.919L7.36799 -93.301L4.20399 -93.301L4.20399 -88.219L2.99999 -88.219L2.99999 -94.617ZM12.66 -83.7825L12.66 -76.5865L11.456 -76.5865L11.456 -79.5265L2.99999 -79.5265L2.99999 -80.8425L11.456 -80.8425L11.456 -83.7825L12.66 -83.7825ZM2.99999 -75.2986L12.66 -75.2986L12.66 -71.1406C12.66 -69.2086 11.484 -68.0886 9.98599 -68.0886C8.94999 -68.0886 8.16599 -68.6206 7.78799 -69.5866L7.57799 -69.5866C7.31199 -68.5646 6.54199 -68.3406 5.61799 -68.3406L2.99999 -68.3406L2.99999 -69.6566L5.61799 -69.6566C6.63999 -69.6566 7.05999 -70.1326 7.05999 -71.0706L7.05999 -73.9826L2.99999 -73.9826L2.99999 -75.2986ZM11.456 -71.2946L11.456 -73.9826L8.26399 -73.9826L8.26399 -71.2946C8.26399 -70.0626 8.92199 -69.4326 9.85999 -69.4326C10.798 -69.4326 11.456 -70.0626 11.456 -71.2946ZM12.66 -63.7138L12.66 -61.8518L3.48999 -58.5198L2.99999 -58.5198L2.99999 -59.7658L5.36599 -60.5918L5.36599 -64.9738L2.99999 -65.7998L2.99999 -67.0318L3.48999 -67.0318L12.66 -63.7138ZM10.112 -63.3218L6.56999 -64.5538L6.56999 -61.0118L10.112 -62.2438C10.672 -62.4398 11.12 -62.5658 11.638 -62.6778L11.638 -62.8878C11.12 -62.9998 10.672 -63.1258 10.112 -63.3218ZM2.99999 -57.115L12.66 -57.115L12.66 -54.581L4.07799 -50.955L4.07799 -50.745L12.66 -50.745L12.66 -49.429L2.99999 -49.429L2.99999 -51.907L11.638 -55.589L11.638 -55.799L2.99999 -55.799L2.99999 -57.115ZM6.10799 -47.7759L6.10799 -46.4599C4.69399 -46.2499 3.97999 -45.2839 3.97999 -43.8279C3.97999 -42.6799 4.45599 -41.6719 5.50599 -41.6719C6.34599 -41.6719 6.76599 -42.3019 6.97599 -43.0299L7.57799 -45.1439C7.95599 -46.4599 8.86599 -47.4259 10.21 -47.4259C11.806 -47.4259 12.912 -46.0119 12.912 -44.0939C12.912 -42.3159 12.03 -40.9159 10.238 -40.5239L9.74799 -40.5239L9.74799 -41.7699C10.966 -41.9519 11.68 -42.7639 11.68 -44.0939C11.68 -45.1999 11.162 -46.0679 10.266 -46.0679C9.60799 -46.0679 9.08999 -45.6059 8.83799 -44.7099L8.23599 -42.5959C7.85799 -41.2939 7.01799 -40.3139 5.54799 -40.3139C3.76999 -40.3139 2.74799 -41.7839 2.74799 -43.8279C2.74799 -45.9839 3.83999 -47.3559 5.61799 -47.7759L6.10799 -47.7759ZM12.66 -36.206L12.66 -34.344L3.48999 -31.012L2.99999 -31.012L2.99999 -32.258L5.36599 -33.084L5.36599 -37.466L2.99999 -38.292L2.99999 -39.524L3.48999 -39.524L12.66 -36.206ZM10.112 -35.814L6.56999 -37.046L6.56999 -33.504L10.112 -34.736C10.672 -34.932 11.12 -35.058 11.638 -35.17L11.638 -35.38C11.12 -35.492 10.672 -35.618 10.112 -35.814ZM12.912 -25.8047C12.912 -23.7607 11.708 -22.2207 9.84599 -21.6747L9.28599 -21.6747L9.28599 -22.9627C10.742 -23.2847 11.68 -24.3347 11.68 -25.8047C11.68 -27.7367 10.056 -29.1087 7.82999 -29.1087C5.60399 -29.1087 3.97999 -27.7367 3.97999 -25.8047C3.97999 -24.3347 4.93199 -23.2427 6.40199 -22.9347L6.40199 -21.6327L5.84199 -21.6327C3.96599 -22.1927 2.74799 -23.7607 2.74799 -25.8047C2.74799 -28.5347 4.88999 -30.4667 7.82999 -30.4667C10.77 -30.4667 12.912 -28.5347 12.912 -25.8047ZM12.66 -21.1106L12.66 -13.9146L11.456 -13.9146L11.456 -16.8546L2.99999 -16.8546L2.99999 -18.1706L11.456 -18.1706L11.456 -21.1106L12.66 -21.1106ZM2.99999 -12.6267L12.66 -12.6267L12.66 -11.3107L2.99999 -11.3107L2.99999 -12.6267ZM12.912 -4.94074C12.912 -2.19674 10.77 -0.250739 7.82999 -0.250739C4.88999 -0.250739 2.74799 -2.19674 2.74799 -4.94074C2.74799 -7.68474 4.88999 -9.63074 7.82999 -9.63074C10.77 -9.63074 12.912 -7.68474 12.912 -4.94074ZM11.68 -4.94074C11.68 -6.88674 10.056 -8.27274 7.82999 -8.27274C5.60399 -8.27274 3.97999 -6.88674 3.97999 -4.94074C3.97999 -2.99474 5.60399 -1.60874 7.82999 -1.60874C10.056 -1.60874 11.68 -2.99474 11.68 -4.94074ZM2.99999 1.42795L12.66 1.42795L12.66 3.96195L4.07799 7.58795L4.07799 7.79795L12.66 7.79795L12.66 9.11395L2.99999 9.11395L2.99999 6.63595L11.638 2.95395L11.638 2.74395L2.99999 2.74395L2.99999 1.42795ZM6.10799 10.767L6.10799 12.083C4.69399 12.293 3.97999 13.259 3.97999 14.715C3.97999 15.863 4.45599 16.871 5.50599 16.871C6.34599 16.871 6.76599 16.241 6.97599 15.513L7.57799 13.399C7.95599 12.083 8.86599 11.117 10.21 11.117C11.806 11.117 12.912 12.531 12.912 14.449C12.912 16.227 12.03 17.627 10.238 18.019L9.74799 18.019L9.74799 16.773C10.966 16.591 11.68 15.779 11.68 14.449C11.68 13.343 11.162 12.475 10.266 12.475C9.60799 12.475 9.08999 12.937 8.83799 13.833L8.23599 15.947C7.85799 17.249 7.01799 18.229 5.54799 18.229C3.76999 18.229 2.74799 16.759 2.74799 14.715C2.74799 12.559 3.83999 11.187 5.61799 10.767L6.10799 10.767Z" fill="white"/>
<path d="M14.8459 29.3266C15.0514 29.351 15.0514 29.6491 14.8459 29.6735L13.1223 29.878C10.8968 30.1421 9.14204 31.8968 8.87797 34.1223L8.67346 35.8459C8.64906 36.0514 8.35094 36.0514 8.32654 35.8459L8.12203 34.1223C7.85795 31.8968 6.10325 30.1421 3.87767 29.878L2.15411 29.6735C1.94863 29.6491 1.94863 29.351 2.15411 29.3266L3.87767 29.122C6.10325 28.858 7.85795 27.1033 8.12203 24.8777L8.32654 23.1541C8.35094 22.9487 8.64906 22.9487 8.67346 23.1541L8.87797 24.8777C9.14204 27.1033 10.8968 28.858 13.1223 29.122L14.8459 29.3266Z" fill="white"/>
<path d="M3 41.2443L12.66 41.2443L12.66 42.5603L8.642 42.5603L8.642 47.4043L12.66 47.4043L12.66 48.7203L3 48.7203L3 47.4043L7.438 47.4043L7.438 42.5603L3 42.5603L3 41.2443ZM6.71 50.7004L12.66 50.7004L12.66 52.0164L6.668 52.0164C4.96 52.0164 3.98 52.8984 3.98 54.4384C3.98 55.9784 4.96 56.8604 6.668 56.8604L12.66 56.8604L12.66 58.1764L6.71 58.1764C4.19 58.1764 2.748 56.8184 2.748 54.4384C2.748 52.0584 4.19 50.7004 6.71 50.7004ZM3 60.1525L12.66 60.1525L12.66 62.7145L6.57 64.6325C6.024 64.8005 5.506 64.9125 4.946 65.0105L4.946 65.2205C5.506 65.3185 6.024 65.4445 6.57 65.6125L12.66 67.5445L12.66 70.0785L3 70.0785L3 68.7625L11.638 68.7625L11.638 68.5385L3.742 66.0045L3.742 64.2125L11.638 61.6925L11.638 61.4685L3 61.4685L3 60.1525ZM12.66 74.7998L12.66 76.6618L3.49 79.9938L3 79.9938L3 78.7478L5.366 77.9218L5.366 73.5398L3 72.7138L3 71.4818L3.49 71.4818L12.66 74.7998ZM10.112 75.1918L6.57 73.9598L6.57 77.5018L10.112 76.2698C10.672 76.0738 11.12 75.9478 11.638 75.8358L11.638 75.6258C11.12 75.5138 10.672 75.3878 10.112 75.1918ZM3 81.3986L12.66 81.3986L12.66 83.9326L4.078 87.5586L4.078 87.7686L12.66 87.7686L12.66 89.0846L3 89.0846L3 86.6066L11.638 82.9246L11.638 82.7146L3 82.7146L3 81.3986ZM5.772 90.8777L6.92 90.8777L6.92 94.4337L5.772 94.4337L5.772 90.8777ZM3 96.219L12.66 96.219L12.66 100.377C12.66 102.309 11.484 103.429 9.986 103.429C8.95 103.429 8.166 102.897 7.788 101.931L7.578 101.931C7.312 102.953 6.542 103.177 5.618 103.177L3 103.177L3 101.861L5.618 101.861C6.64 101.861 7.06 101.385 7.06 100.447L7.06 97.535L3 97.535L3 96.219ZM11.456 100.223L11.456 97.535L8.264 97.535L8.264 100.223C8.264 101.455 8.922 102.085 9.86 102.085C10.798 102.085 11.456 101.455 11.456 100.223ZM3 105.27L12.66 105.27L12.66 111.57L11.456 111.57L11.456 106.586L8.572 106.586L8.572 110.968L7.368 110.968L7.368 106.586L4.204 106.586L4.204 111.668L3 111.668L3 105.27ZM12.66 115.966L12.66 117.828L3.49 121.16L3 121.16L3 119.914L5.366 119.088L5.366 114.706L3 113.88L3 112.648L3.49 112.648L12.66 115.966ZM10.112 116.358L6.57 115.126L6.57 118.668L10.112 117.436C10.672 117.24 11.12 117.114 11.638 117.002L11.638 116.792C11.12 116.68 10.672 116.554 10.112 116.358ZM3 122.565L12.66 122.565L12.66 125.757C12.66 128.865 10.686 130.405 7.83 130.405C4.974 130.405 3 128.865 3 125.757L3 122.565ZM11.456 123.881L4.204 123.881L4.204 125.799C4.204 128.109 5.786 129.047 7.83 129.047C9.874 129.047 11.456 128.109 11.456 125.799L11.456 123.881ZM12.66 134.464L12.66 136.326L3.49 139.658L3 139.658L3 138.412L5.366 137.586L5.366 133.204L3 132.378L3 131.146L3.49 131.146L12.66 134.464ZM10.112 134.856L6.57 133.624L6.57 137.166L10.112 135.934C10.672 135.738 11.12 135.612 11.638 135.5L11.638 135.29C11.12 135.178 10.672 135.052 10.112 134.856ZM3 141.063L12.66 141.063L12.66 145.137C12.66 146.887 11.666 148.007 10.21 148.007C9.286 148.007 8.558 147.559 8.208 146.677L8.012 146.677C7.676 147.783 6.822 148.399 5.66 148.399C4.232 148.399 3 147.461 3 145.165L3 141.063ZM11.456 144.983L11.456 142.379L8.628 142.379L8.628 144.983C8.628 146.075 9.202 146.677 10.042 146.677C10.896 146.677 11.456 146.089 11.456 144.983ZM7.424 145.165L7.424 142.379L4.204 142.379L4.204 145.165C4.204 146.411 4.792 147.055 5.814 147.055C6.794 147.055 7.424 146.411 7.424 145.165ZM3 150.086L12.66 150.086L12.66 151.402L4.204 151.402L4.20399 155.938L2.99999 155.938L3 150.086ZM2.99999 157.237L12.66 157.237L12.66 163.537L11.456 163.537L11.456 158.553L8.572 158.553L8.572 162.935L7.36799 162.935L7.36799 158.553L4.20399 158.553L4.20399 163.635L2.99999 163.635L2.99999 157.237ZM6.10799 168.435L6.10799 169.751C4.69399 169.961 3.97999 170.927 3.97999 172.383C3.97999 173.531 4.45599 174.539 5.50599 174.539C6.34599 174.539 6.76599 173.909 6.97599 173.181L7.57799 171.067C7.95599 169.751 8.86599 168.785 10.21 168.785C11.806 168.785 12.912 170.199 12.912 172.117C12.912 173.895 12.03 175.295 10.238 175.687L9.74799 175.687L9.74799 174.441C10.966 174.259 11.68 173.447 11.68 172.117C11.68 171.011 11.162 170.143 10.266 170.143C9.60799 170.143 9.08999 170.605 8.83799 171.501L8.23599 173.615C7.85799 174.917 7.01799 175.897 5.54799 175.897C3.76999 175.897 2.74799 174.427 2.74799 172.383C2.74799 170.227 3.83999 168.855 5.61799 168.435L6.10799 168.435ZM12.66 180.005L12.66 181.867L3.48999 185.199L2.99999 185.199L2.99999 183.953L5.36599 183.127L5.36599 178.745L2.99999 177.919L2.99999 176.687L3.48999 176.687L12.66 180.005ZM10.112 180.397L6.56999 179.165L6.56999 182.707L10.112 181.475C10.672 181.279 11.12 181.153 11.638 181.041L11.638 180.831C11.12 180.719 10.672 180.593 10.112 180.397ZM2.99999 186.604L12.66 186.604L12.66 192.904L11.456 192.904L11.456 187.92L8.33399 187.92L8.33399 192.302L7.12999 192.302L7.12999 187.92L2.99999 187.92L2.99999 186.604ZM2.99999 194.383L12.66 194.383L12.66 200.683L11.456 200.683L11.456 195.699L8.57199 195.699L8.57199 200.081L7.36799 200.081L7.36799 195.699L4.20399 195.699L4.20399 200.781L2.99999 200.781L2.99999 194.383ZM12.66 205.217L12.66 212.413L11.456 212.413L11.456 209.473L2.99999 209.473L2.99999 208.157L11.456 208.157L11.456 205.217L12.66 205.217ZM2.99999 213.701L12.66 213.701L12.66 217.859C12.66 219.791 11.484 220.911 9.98599 220.911C8.94999 220.911 8.16599 220.379 7.78799 219.413L7.57799 219.413C7.31199 220.435 6.54199 220.659 5.61799 220.659L2.99999 220.659L2.99999 219.343L5.61799 219.343C6.63999 219.343 7.05999 218.867 7.05999 217.929L7.05999 215.017L2.99999 215.017L2.99999 213.701ZM11.456 217.705L11.456 215.017L8.26399 215.017L8.26399 217.705C8.26399 218.937 8.92199 219.567 9.85999 219.567C10.798 219.567 11.456 218.937 11.456 217.705ZM12.66 225.286L12.66 227.148L3.48999 230.48L2.99999 230.48L2.99999 229.234L5.36599 228.408L5.36599 224.026L2.99999 223.2L2.99999 221.968L3.48999 221.968L12.66 225.286ZM10.112 225.678L6.56999 224.446L6.56999 227.988L10.112 226.756C10.672 226.56 11.12 226.434 11.638 226.322L11.638 226.112C11.12 226 10.672 225.874 10.112 225.678ZM2.99999 231.885L12.66 231.885L12.66 234.419L4.07799 238.045L4.07799 238.255L12.66 238.255L12.66 239.571L2.99999 239.571L2.99999 237.093L11.638 233.411L11.638 233.201L2.99999 233.201L2.99999 231.885ZM6.10799 241.224L6.10799 242.54C4.69399 242.75 3.97999 243.716 3.97999 245.172C3.97999 246.32 4.45599 247.328 5.50599 247.328C6.34599 247.328 6.76599 246.698 6.97599 245.97L7.57799 243.856C7.95599 242.54 8.86599 241.574 10.21 241.574C11.806 241.574 12.912 242.988 12.912 244.906C12.912 246.684 12.03 248.084 10.238 248.476L9.74799 248.476L9.74799 247.23C10.966 247.048 11.68 246.236 11.68 244.906C11.68 243.8 11.162 242.932 10.266 242.932C9.60799 242.932 9.08999 243.394 8.83799 244.29L8.23599 246.404C7.85799 247.706 7.01799 248.686 5.54799 248.686C3.76999 248.686 2.74799 247.216 2.74799 245.172C2.74799 243.016 3.83999 241.644 5.61799 241.224L6.10799 241.224ZM12.66 252.794L12.66 254.656L3.48999 257.988L2.99999 257.988L2.99999 256.742L5.36599 255.916L5.36599 251.534L2.99999 250.708L2.99999 249.476L3.48999 249.476L12.66 252.794ZM10.112 253.186L6.56999 251.954L6.56999 255.496L10.112 254.264C10.672 254.068 11.12 253.942 11.638 253.83L11.638 253.62C11.12 253.508 10.672 253.382 10.112 253.186ZM12.912 263.195C12.912 265.239 11.708 266.779 9.84599 267.325L9.28599 267.325L9.28599 266.037C10.742 265.715 11.68 264.665 11.68 263.195C11.68 261.263 10.056 259.891 7.82999 259.891C5.60399 259.891 3.97999 261.263 3.97999 263.195C3.97999 264.665 4.93199 265.757 6.40199 266.065L6.40199 267.367L5.84199 267.367C3.96599 266.807 2.74799 265.239 2.74799 263.195C2.74799 260.465 4.88999 258.533 7.82999 258.533C10.77 258.533 12.912 260.465 12.912 263.195ZM12.66 267.889L12.66 275.085L11.456 275.085L11.456 272.145L2.99999 272.145L2.99999 270.829L11.456 270.829L11.456 267.889L12.66 267.889ZM2.99999 276.373L12.66 276.373L12.66 277.689L2.99999 277.689L2.99999 276.373ZM12.912 284.059C12.912 286.803 10.77 288.749 7.82999 288.749C4.88999 288.749 2.74799 286.803 2.74799 284.059C2.74799 281.315 4.88999 279.369 7.82999 279.369C10.77 279.369 12.912 281.315 12.912 284.059ZM11.68 284.059C11.68 282.113 10.056 280.727 7.82999 280.727C5.60399 280.727 3.97999 282.113 3.97999 284.059C3.97999 286.005 5.60399 287.391 7.82999 287.391C10.056 287.391 11.68 286.005 11.68 284.059ZM2.99999 290.428L12.66 290.428L12.66 292.962L4.07799 296.588L4.07799 296.798L12.66 296.798L12.66 298.114L2.99999 298.114L2.99999 295.636L11.638 291.954L11.638 291.744L2.99999 291.744L2.99999 290.428ZM6.10799 299.767L6.10799 301.083C4.69399 301.293 3.97999 302.259 3.97999 303.715C3.97999 304.863 4.45599 305.871 5.50599 305.871C6.34599 305.871 6.76599 305.241 6.97599 304.513L7.57799 302.399C7.95599 301.083 8.86599 300.117 10.21 300.117C11.806 300.117 12.912 301.531 12.912 303.449C12.912 305.227 12.03 306.627 10.238 307.019L9.74799 307.019L9.74799 305.773C10.966 305.591 11.68 304.779 11.68 303.449C11.68 302.343 11.162 301.475 10.266 301.475C9.60799 301.475 9.08999 301.937 8.83799 302.833L8.23599 304.947C7.85799 306.249 7.01799 307.229 5.54799 307.229C3.76999 307.229 2.74799 305.759 2.74799 303.715C2.74799 301.559 3.83999 300.187 5.61799 299.767L6.10799 299.767Z" fill="white"/>
</g>
<g clip-path="url(#clip3_4_1853)">
<rect width="438" height="17" transform="translate(-17)" fill="#121312"/>
<path d="M-134.756 14V4.34H-133.44V8.358H-128.596V4.34H-127.28V14H-128.596V9.562H-133.44V14H-134.756ZM-125.3 10.29V4.34H-123.984V10.332C-123.984 12.04 -123.102 13.02 -121.562 13.02C-120.022 13.02 -119.14 12.04 -119.14 10.332V4.34H-117.824V10.29C-117.824 12.81 -119.182 14.252 -121.562 14.252C-123.942 14.252 -125.3 12.81 -125.3 10.29ZM-115.847 14V4.34H-113.285L-111.367 10.43C-111.199 10.976 -111.087 11.494 -110.989 12.054H-110.779C-110.681 11.494 -110.555 10.976 -110.387 10.43L-108.455 4.34H-105.921V14H-107.237V5.362H-107.461L-109.995 13.258H-111.787L-114.307 5.362H-114.531V14H-115.847ZM-101.2 4.34H-99.3382L-96.0062 13.51V14H-97.2522L-98.0782 11.634H-102.46L-103.286 14H-104.518V13.51L-101.2 4.34ZM-100.808 6.888L-102.04 10.43H-98.4982L-99.7302 6.888C-99.9262 6.328 -100.052 5.88 -100.164 5.362H-100.374C-100.486 5.88 -100.612 6.328 -100.808 6.888ZM-94.6014 14V4.34H-92.0674L-88.4414 12.922H-88.2314V4.34H-86.9154V14H-89.3934L-93.0754 5.362H-93.2854V14H-94.6014ZM-85.1223 11.228V10.08H-81.5663V11.228H-85.1223ZM-79.781 14V4.34H-75.623C-73.691 4.34 -72.571 5.516 -72.571 7.014C-72.571 8.05 -73.103 8.834 -74.069 9.212V9.422C-73.047 9.688 -72.823 10.458 -72.823 11.382V14H-74.139V11.382C-74.139 10.36 -74.615 9.94 -75.553 9.94H-78.465V14H-79.781ZM-75.777 5.544H-78.465V8.736H-75.777C-74.545 8.736 -73.915 8.078 -73.915 7.14C-73.915 6.202 -74.545 5.544 -75.777 5.544ZM-70.7303 14V4.34H-64.4303V5.544H-69.4143V8.428H-65.0323V9.632H-69.4143V12.796H-64.3323V14H-70.7303ZM-60.0342 4.34H-58.1722L-54.8402 13.51V14H-56.0862L-56.9122 11.634H-61.2942L-62.1202 14H-63.3522V13.51L-60.0342 4.34ZM-59.6422 6.888L-60.8742 10.43H-57.3322L-58.5642 6.888C-58.7602 6.328 -58.8862 5.88 -58.9982 5.362H-59.2082C-59.3202 5.88 -59.4462 6.328 -59.6422 6.888ZM-53.4353 14V4.34H-50.2433C-47.1353 4.34 -45.5953 6.314 -45.5953 9.17C-45.5953 12.026 -47.1353 14 -50.2433 14H-53.4353ZM-52.1193 5.544V12.796H-50.2013C-47.8913 12.796 -46.9533 11.214 -46.9533 9.17C-46.9533 7.126 -47.8913 5.544 -50.2013 5.544H-52.1193ZM-41.5361 4.34H-39.6741L-36.3421 13.51V14H-37.5881L-38.4141 11.634H-42.7961L-43.6221 14H-44.8541V13.51L-41.5361 4.34ZM-41.1441 6.888L-42.3761 10.43H-38.8341L-40.0661 6.888C-40.2621 6.328 -40.3881 5.88 -40.5001 5.362H-40.7101C-40.8221 5.88 -40.9481 6.328 -41.1441 6.888ZM-34.9373 14V4.34H-30.8633C-29.1133 4.34 -27.9933 5.334 -27.9933 6.79C-27.9933 7.714 -28.4413 8.442 -29.3233 8.792V8.988C-28.2173 9.324 -27.6013 10.178 -27.6013 11.34C-27.6013 12.768 -28.5393 14 -30.8353 14H-34.9373ZM-31.0173 5.544H-33.6213V8.372H-31.0173C-29.9253 8.372 -29.3233 7.798 -29.3233 6.958C-29.3233 6.104 -29.9113 5.544 -31.0173 5.544ZM-30.8353 9.576H-33.6213V12.796H-30.8353C-29.5893 12.796 -28.9453 12.208 -28.9453 11.186C-28.9453 10.206 -29.5893 9.576 -30.8353 9.576ZM-25.9139 14V4.34H-24.5979V12.796H-20.0619V14H-25.9139ZM-18.7635 14V4.34H-12.4635V5.544H-17.4475V8.428H-13.0655V9.632H-17.4475V12.796H-12.3655V14H-18.7635ZM-7.565 10.892H-6.249C-6.039 12.306 -5.073 13.02 -3.617 13.02C-2.469 13.02 -1.461 12.544 -1.461 11.494C-1.461 10.654 -2.091 10.234 -2.819 10.024L-4.933 9.422C-6.249 9.044 -7.215 8.134 -7.215 6.79C-7.215 5.194 -5.801 4.088 -3.883 4.088C-2.105 4.088 -0.705 4.97 -0.313 6.762V7.252H-1.559C-1.741 6.034 -2.553 5.32 -3.883 5.32C-4.989 5.32 -5.857 5.838 -5.857 6.734C-5.857 7.392 -5.395 7.91 -4.499 8.162L-2.385 8.764C-1.083 9.142 -0.103 9.982 -0.103 11.452C-0.103 13.23 -1.573 14.252 -3.617 14.252C-5.773 14.252 -7.145 13.16 -7.565 11.382V10.892ZM4.00491 4.34H5.86691L9.19891 13.51V14H7.95291L7.12691 11.634H2.74491L1.91891 14H0.686906V13.51L4.00491 4.34ZM4.39691 6.888L3.16491 10.43H6.70691L5.47491 6.888C5.27891 6.328 5.15291 5.88 5.04091 5.362H4.83091C4.71891 5.88 4.59291 6.328 4.39691 6.888ZM10.6037 14V4.34H16.9037V5.544H11.9197V8.666H16.3017V9.87H11.9197V14H10.6037ZM18.383 14V4.34H24.683V5.544H19.699V8.428H24.081V9.632H19.699V12.796H24.781V14H18.383ZM29.2175 4.34H36.4135V5.544H33.4735V14H32.1575V5.544H29.2175V4.34ZM37.7014 14V4.34H41.8594C43.7914 4.34 44.9114 5.516 44.9114 7.014C44.9114 8.05 44.3794 8.834 43.4134 9.212V9.422C44.4354 9.688 44.6594 10.458 44.6594 11.382V14H43.3434V11.382C43.3434 10.36 42.8674 9.94 41.9294 9.94H39.0174V14H37.7014ZM41.7054 5.544H39.0174V8.736H41.7054C42.9374 8.736 43.5674 8.078 43.5674 7.14C43.5674 6.202 42.9374 5.544 41.7054 5.544ZM49.2862 4.34H51.1482L54.4802 13.51V14H53.2342L52.4082 11.634H48.0262L47.2002 14H45.9682V13.51L49.2862 4.34ZM49.6782 6.888L48.4462 10.43H51.9882L50.7562 6.888C50.5602 6.328 50.4342 5.88 50.3222 5.362H50.1122C50.0002 5.88 49.8742 6.328 49.6782 6.888ZM55.885 14V4.34H58.419L62.045 12.922H62.255V4.34H63.571V14H61.093L57.411 5.362H57.201V14H55.885ZM65.2241 10.892H66.5401C66.7501 12.306 67.7161 13.02 69.1721 13.02C70.3201 13.02 71.3281 12.544 71.3281 11.494C71.3281 10.654 70.6981 10.234 69.9701 10.024L67.8561 9.422C66.5401 9.044 65.5741 8.134 65.5741 6.79C65.5741 5.194 66.9881 4.088 68.9061 4.088C70.6841 4.088 72.0841 4.97 72.4761 6.762V7.252H71.2301C71.0481 6.034 70.2361 5.32 68.9061 5.32C67.8001 5.32 66.9321 5.838 66.9321 6.734C66.9321 7.392 67.3941 7.91 68.2901 8.162L70.4041 8.764C71.7061 9.142 72.6861 9.982 72.6861 11.452C72.6861 13.23 71.2161 14.252 69.1721 14.252C67.0161 14.252 65.6441 13.16 65.2241 11.382V10.892ZM76.794 4.34H78.656L81.988 13.51V14H80.742L79.916 11.634H75.534L74.708 14H73.476V13.51L76.794 4.34ZM77.186 6.888L75.954 10.43H79.496L78.264 6.888C78.068 6.328 77.942 5.88 77.83 5.362H77.62C77.508 5.88 77.382 6.328 77.186 6.888ZM87.1953 4.088C89.2393 4.088 90.7793 5.292 91.3253 7.154V7.714H90.0373C89.7153 6.258 88.6653 5.32 87.1953 5.32C85.2633 5.32 83.8913 6.944 83.8913 9.17C83.8913 11.396 85.2633 13.02 87.1953 13.02C88.6653 13.02 89.7573 12.068 90.0653 10.598H91.3673V11.158C90.8073 13.034 89.2393 14.252 87.1953 14.252C84.4653 14.252 82.5333 12.11 82.5333 9.17C82.5333 6.23 84.4653 4.088 87.1953 4.088ZM91.8894 4.34H99.0854V5.544H96.1454V14H94.8294V5.544H91.8894V4.34ZM100.373 14V4.34H101.689V14H100.373ZM108.059 4.088C110.803 4.088 112.749 6.23 112.749 9.17C112.749 12.11 110.803 14.252 108.059 14.252C105.315 14.252 103.369 12.11 103.369 9.17C103.369 6.23 105.315 4.088 108.059 4.088ZM108.059 5.32C106.113 5.32 104.727 6.944 104.727 9.17C104.727 11.396 106.113 13.02 108.059 13.02C110.005 13.02 111.391 11.396 111.391 9.17C111.391 6.944 110.005 5.32 108.059 5.32ZM114.428 14V4.34H116.962L120.588 12.922H120.798V4.34H122.114V14H119.636L115.954 5.362H115.744V14H114.428ZM123.767 10.892H125.083C125.293 12.306 126.259 13.02 127.715 13.02C128.863 13.02 129.871 12.544 129.871 11.494C129.871 10.654 129.241 10.234 128.513 10.024L126.399 9.422C125.083 9.044 124.117 8.134 124.117 6.79C124.117 5.194 125.531 4.088 127.449 4.088C129.227 4.088 130.627 4.97 131.019 6.762V7.252H129.773C129.591 6.034 128.779 5.32 127.449 5.32C126.343 5.32 125.475 5.838 125.475 6.734C125.475 7.392 125.937 7.91 126.833 8.162L128.947 8.764C130.249 9.142 131.229 9.982 131.229 11.452C131.229 13.23 129.759 14.252 127.715 14.252C125.559 14.252 124.187 13.16 123.767 11.382V10.892Z" fill="white"/>
<path d="M142.327 2.15409C142.351 1.94864 142.649 1.94864 142.673 2.15409L142.878 3.87766C143.142 6.10325 144.897 7.85795 147.122 8.12203L148.846 8.32654C149.051 8.35094 149.051 8.64906 148.846 8.67346L147.122 8.87797C144.897 9.14205 143.142 10.8968 142.878 13.1223L142.673 14.8459C142.649 15.0514 142.351 15.0514 142.327 14.8459L142.122 13.1223C141.858 10.8968 140.103 9.14205 137.878 8.87797L136.154 8.67346C135.949 8.64906 135.949 8.35094 136.154 8.32654L137.878 8.12203C140.103 7.85795 141.858 6.10325 142.122 3.87766L142.327 2.15409Z" fill="white"/>
<path d="M154.244 14V4.34H155.56V8.358H160.404V4.34H161.72V14H160.404V9.562H155.56V14H154.244ZM163.7 10.29V4.34H165.016V10.332C165.016 12.04 165.898 13.02 167.438 13.02C168.978 13.02 169.86 12.04 169.86 10.332V4.34H171.176V10.29C171.176 12.81 169.818 14.252 167.438 14.252C165.058 14.252 163.7 12.81 163.7 10.29ZM173.153 14V4.34H175.715L177.633 10.43C177.801 10.976 177.913 11.494 178.011 12.054H178.221C178.319 11.494 178.445 10.976 178.613 10.43L180.545 4.34H183.079V14H181.763V5.362H181.539L179.005 13.258H177.213L174.693 5.362H174.469V14H173.153ZM187.8 4.34H189.662L192.994 13.51V14H191.748L190.922 11.634H186.54L185.714 14H184.482V13.51L187.8 4.34ZM188.192 6.888L186.96 10.43H190.502L189.27 6.888C189.074 6.328 188.948 5.88 188.836 5.362H188.626C188.514 5.88 188.388 6.328 188.192 6.888ZM194.399 14V4.34H196.933L200.559 12.922H200.769V4.34H202.085V14H199.607L195.925 5.362H195.715V14H194.399ZM203.878 11.228V10.08H207.434V11.228H203.878ZM209.219 14V4.34H213.377C215.309 4.34 216.429 5.516 216.429 7.014C216.429 8.05 215.897 8.834 214.931 9.212V9.422C215.953 9.688 216.177 10.458 216.177 11.382V14H214.861V11.382C214.861 10.36 214.385 9.94 213.447 9.94H210.535V14H209.219ZM213.223 5.544H210.535V8.736H213.223C214.455 8.736 215.085 8.078 215.085 7.14C215.085 6.202 214.455 5.544 213.223 5.544ZM218.27 14V4.34H224.57V5.544H219.586V8.428H223.968V9.632H219.586V12.796H224.668V14H218.27ZM228.966 4.34H230.828L234.16 13.51V14H232.914L232.088 11.634H227.706L226.88 14H225.648V13.51L228.966 4.34ZM229.358 6.888L228.126 10.43H231.668L230.436 6.888C230.24 6.328 230.114 5.88 230.002 5.362H229.792C229.68 5.88 229.554 6.328 229.358 6.888ZM235.565 14V4.34H238.757C241.865 4.34 243.405 6.314 243.405 9.17C243.405 12.026 241.865 14 238.757 14H235.565ZM236.881 5.544V12.796H238.799C241.109 12.796 242.047 11.214 242.047 9.17C242.047 7.126 241.109 5.544 238.799 5.544H236.881ZM247.464 4.34H249.326L252.658 13.51V14H251.412L250.586 11.634H246.204L245.378 14H244.146V13.51L247.464 4.34ZM247.856 6.888L246.624 10.43H250.166L248.934 6.888C248.738 6.328 248.612 5.88 248.5 5.362H248.29C248.178 5.88 248.052 6.328 247.856 6.888ZM254.063 14V4.34H258.137C259.887 4.34 261.007 5.334 261.007 6.79C261.007 7.714 260.559 8.442 259.677 8.792V8.988C260.783 9.324 261.399 10.178 261.399 11.34C261.399 12.768 260.461 14 258.165 14H254.063ZM257.983 5.544H255.379V8.372H257.983C259.075 8.372 259.677 7.798 259.677 6.958C259.677 6.104 259.089 5.544 257.983 5.544ZM258.165 9.576H255.379V12.796H258.165C259.411 12.796 260.055 12.208 260.055 11.186C260.055 10.206 259.411 9.576 258.165 9.576ZM263.086 14V4.34H264.402V12.796H268.938V14H263.086ZM270.237 14V4.34H276.537V5.544H271.553V8.428H275.935V9.632H271.553V12.796H276.635V14H270.237ZM281.435 10.892H282.751C282.961 12.306 283.927 13.02 285.383 13.02C286.531 13.02 287.539 12.544 287.539 11.494C287.539 10.654 286.909 10.234 286.181 10.024L284.067 9.422C282.751 9.044 281.785 8.134 281.785 6.79C281.785 5.194 283.199 4.088 285.117 4.088C286.895 4.088 288.295 4.97 288.687 6.762V7.252H287.441C287.259 6.034 286.447 5.32 285.117 5.32C284.011 5.32 283.143 5.838 283.143 6.734C283.143 7.392 283.605 7.91 284.501 8.162L286.615 8.764C287.917 9.142 288.897 9.982 288.897 11.452C288.897 13.23 287.427 14.252 285.383 14.252C283.227 14.252 281.855 13.16 281.435 11.382V10.892ZM293.005 4.34H294.867L298.199 13.51V14H296.953L296.127 11.634H291.745L290.919 14H289.687V13.51L293.005 4.34ZM293.397 6.888L292.165 10.43H295.707L294.475 6.888C294.279 6.328 294.153 5.88 294.041 5.362H293.831C293.719 5.88 293.593 6.328 293.397 6.888ZM299.604 14V4.34H305.904V5.544H300.92V8.666H305.302V9.87H300.92V14H299.604ZM307.383 14V4.34H313.683V5.544H308.699V8.428H313.081V9.632H308.699V12.796H313.781V14H307.383ZM318.217 4.34H325.413V5.544H322.473V14H321.157V5.544H318.217V4.34ZM326.701 14V4.34H330.859C332.791 4.34 333.911 5.516 333.911 7.014C333.911 8.05 333.379 8.834 332.413 9.212V9.422C333.435 9.688 333.659 10.458 333.659 11.382V14H332.343V11.382C332.343 10.36 331.867 9.94 330.929 9.94H328.017V14H326.701ZM330.705 5.544H328.017V8.736H330.705C331.937 8.736 332.567 8.078 332.567 7.14C332.567 6.202 331.937 5.544 330.705 5.544ZM338.286 4.34H340.148L343.48 13.51V14H342.234L341.408 11.634H337.026L336.2 14H334.968V13.51L338.286 4.34ZM338.678 6.888L337.446 10.43H340.988L339.756 6.888C339.56 6.328 339.434 5.88 339.322 5.362H339.112C339 5.88 338.874 6.328 338.678 6.888ZM344.885 14V4.34H347.419L351.045 12.922H351.255V4.34H352.571V14H350.093L346.411 5.362H346.201V14H344.885ZM354.224 10.892H355.54C355.75 12.306 356.716 13.02 358.172 13.02C359.32 13.02 360.328 12.544 360.328 11.494C360.328 10.654 359.698 10.234 358.97 10.024L356.856 9.422C355.54 9.044 354.574 8.134 354.574 6.79C354.574 5.194 355.988 4.088 357.906 4.088C359.684 4.088 361.084 4.97 361.476 6.762V7.252H360.23C360.048 6.034 359.236 5.32 357.906 5.32C356.8 5.32 355.932 5.838 355.932 6.734C355.932 7.392 356.394 7.91 357.29 8.162L359.404 8.764C360.706 9.142 361.686 9.982 361.686 11.452C361.686 13.23 360.216 14.252 358.172 14.252C356.016 14.252 354.644 13.16 354.224 11.382V10.892ZM365.794 4.34H367.656L370.988 13.51V14H369.742L368.916 11.634H364.534L363.708 14H362.476V13.51L365.794 4.34ZM366.186 6.888L364.954 10.43H368.496L367.264 6.888C367.068 6.328 366.942 5.88 366.83 5.362H366.62C366.508 5.88 366.382 6.328 366.186 6.888ZM376.195 4.088C378.239 4.088 379.779 5.292 380.325 7.154V7.714H379.037C378.715 6.258 377.665 5.32 376.195 5.32C374.263 5.32 372.891 6.944 372.891 9.17C372.891 11.396 374.263 13.02 376.195 13.02C377.665 13.02 378.757 12.068 379.065 10.598H380.367V11.158C379.807 13.034 378.239 14.252 376.195 14.252C373.465 14.252 371.533 12.11 371.533 9.17C371.533 6.23 373.465 4.088 376.195 4.088ZM380.889 4.34H388.085V5.544H385.145V14H383.829V5.544H380.889V4.34ZM389.373 14V4.34H390.689V14H389.373ZM397.059 4.088C399.803 4.088 401.749 6.23 401.749 9.17C401.749 12.11 399.803 14.252 397.059 14.252C394.315 14.252 392.369 12.11 392.369 9.17C392.369 6.23 394.315 4.088 397.059 4.088ZM397.059 5.32C395.113 5.32 393.727 6.944 393.727 9.17C393.727 11.396 395.113 13.02 397.059 13.02C399.005 13.02 400.391 11.396 400.391 9.17C400.391 6.944 399.005 5.32 397.059 5.32ZM403.428 14V4.34H405.962L409.588 12.922H409.798V4.34H411.114V14H408.636L404.954 5.362H404.744V14H403.428ZM412.767 10.892H414.083C414.293 12.306 415.259 13.02 416.715 13.02C417.863 13.02 418.871 12.544 418.871 11.494C418.871 10.654 418.241 10.234 417.513 10.024L415.399 9.422C414.083 9.044 413.117 8.134 413.117 6.79C413.117 5.194 414.531 4.088 416.449 4.088C418.227 4.088 419.627 4.97 420.019 6.762V7.252H418.773C418.591 6.034 417.779 5.32 416.449 5.32C415.343 5.32 414.475 5.838 414.475 6.734C414.475 7.392 414.937 7.91 415.833 8.162L417.947 8.764C419.249 9.142 420.229 9.982 420.229 11.452C420.229 13.23 418.759 14.252 416.715 14.252C414.559 14.252 413.187 13.16 412.767 11.382V10.892Z" fill="white"/>
</g>
<g clip-path="url(#clip4_4_1853)">
<rect width="438" height="17" transform="translate(21 296)" fill="#121312"/>
<path d="M22.2443 310V300.34H23.5603V304.358H28.4043V300.34H29.7203V310H28.4043V305.562H23.5603V310H22.2443ZM31.7004 306.29V300.34H33.0164V306.332C33.0164 308.04 33.8984 309.02 35.4384 309.02C36.9784 309.02 37.8604 308.04 37.8604 306.332V300.34H39.1764V306.29C39.1764 308.81 37.8184 310.252 35.4384 310.252C33.0584 310.252 31.7004 308.81 31.7004 306.29ZM41.1525 310V300.34H43.7145L45.6325 306.43C45.8005 306.976 45.9125 307.494 46.0105 308.054H46.2205C46.3185 307.494 46.4445 306.976 46.6125 306.43L48.5445 300.34H51.0785V310H49.7625V301.362H49.5385L47.0045 309.258H45.2125L42.6925 301.362H42.4685V310H41.1525ZM55.7998 300.34H57.6618L60.9938 309.51V310H59.7478L58.9218 307.634H54.5398L53.7138 310H52.4818V309.51L55.7998 300.34ZM56.1918 302.888L54.9598 306.43H58.5018L57.2698 302.888C57.0738 302.328 56.9478 301.88 56.8358 301.362H56.6258C56.5138 301.88 56.3878 302.328 56.1918 302.888ZM62.3986 310V300.34H64.9326L68.5586 308.922H68.7686V300.34H70.0846V310H67.6066L63.9246 301.362H63.7146V310H62.3986ZM71.8777 307.228V306.08H75.4337V307.228H71.8777ZM77.219 310V300.34H81.377C83.309 300.34 84.429 301.516 84.429 303.014C84.429 304.05 83.897 304.834 82.931 305.212V305.422C83.953 305.688 84.177 306.458 84.177 307.382V310H82.861V307.382C82.861 306.36 82.385 305.94 81.447 305.94H78.535V310H77.219ZM81.223 301.544H78.535V304.736H81.223C82.455 304.736 83.085 304.078 83.085 303.14C83.085 302.202 82.455 301.544 81.223 301.544ZM86.2697 310V300.34H92.5697V301.544H87.5857V304.428H91.9677V305.632H87.5857V308.796H92.6677V310H86.2697ZM96.9658 300.34H98.8278L102.16 309.51V310H100.914L100.088 307.634H95.7058L94.8798 310H93.6478V309.51L96.9658 300.34ZM97.3578 302.888L96.1258 306.43H99.6678L98.4358 302.888C98.2398 302.328 98.1138 301.88 98.0018 301.362H97.7918C97.6798 301.88 97.5538 302.328 97.3578 302.888ZM103.565 310V300.34H106.757C109.865 300.34 111.405 302.314 111.405 305.17C111.405 308.026 109.865 310 106.757 310H103.565ZM104.881 301.544V308.796H106.799C109.109 308.796 110.047 307.214 110.047 305.17C110.047 303.126 109.109 301.544 106.799 301.544H104.881ZM115.464 300.34H117.326L120.658 309.51V310H119.412L118.586 307.634H114.204L113.378 310H112.146V309.51L115.464 300.34ZM115.856 302.888L114.624 306.43H118.166L116.934 302.888C116.738 302.328 116.612 301.88 116.5 301.362H116.29C116.178 301.88 116.052 302.328 115.856 302.888ZM122.063 310V300.34H126.137C127.887 300.34 129.007 301.334 129.007 302.79C129.007 303.714 128.559 304.442 127.677 304.792V304.988C128.783 305.324 129.399 306.178 129.399 307.34C129.399 308.768 128.461 310 126.165 310H122.063ZM125.983 301.544H123.379V304.372H125.983C127.075 304.372 127.677 303.798 127.677 302.958C127.677 302.104 127.089 301.544 125.983 301.544ZM126.165 305.576H123.379V308.796H126.165C127.411 308.796 128.055 308.208 128.055 307.186C128.055 306.206 127.411 305.576 126.165 305.576ZM131.086 310V300.34H132.402V308.796H136.938V310H131.086ZM138.237 310V300.34H144.537V301.544H139.553V304.428H143.935V305.632H139.553V308.796H144.635V310H138.237ZM149.435 306.892H150.751C150.961 308.306 151.927 309.02 153.383 309.02C154.531 309.02 155.539 308.544 155.539 307.494C155.539 306.654 154.909 306.234 154.181 306.024L152.067 305.422C150.751 305.044 149.785 304.134 149.785 302.79C149.785 301.194 151.199 300.088 153.117 300.088C154.895 300.088 156.295 300.97 156.687 302.762V303.252H155.441C155.259 302.034 154.447 301.32 153.117 301.32C152.011 301.32 151.143 301.838 151.143 302.734C151.143 303.392 151.605 303.91 152.501 304.162L154.615 304.764C155.917 305.142 156.897 305.982 156.897 307.452C156.897 309.23 155.427 310.252 153.383 310.252C151.227 310.252 149.855 309.16 149.435 307.382V306.892ZM161.005 300.34H162.867L166.199 309.51V310H164.953L164.127 307.634H159.745L158.919 310H157.687V309.51L161.005 300.34ZM161.397 302.888L160.165 306.43H163.707L162.475 302.888C162.279 302.328 162.153 301.88 162.041 301.362H161.831C161.719 301.88 161.593 302.328 161.397 302.888ZM167.604 310V300.34H173.904V301.544H168.92V304.666H173.302V305.87H168.92V310H167.604ZM175.383 310V300.34H181.683V301.544H176.699V304.428H181.081V305.632H176.699V308.796H181.781V310H175.383ZM186.217 300.34H193.413V301.544H190.473V310H189.157V301.544H186.217V300.34ZM194.701 310V300.34H198.859C200.791 300.34 201.911 301.516 201.911 303.014C201.911 304.05 201.379 304.834 200.413 305.212V305.422C201.435 305.688 201.659 306.458 201.659 307.382V310H200.343V307.382C200.343 306.36 199.867 305.94 198.929 305.94H196.017V310H194.701ZM198.705 301.544H196.017V304.736H198.705C199.937 304.736 200.567 304.078 200.567 303.14C200.567 302.202 199.937 301.544 198.705 301.544ZM206.286 300.34H208.148L211.48 309.51V310H210.234L209.408 307.634H205.026L204.2 310H202.968V309.51L206.286 300.34ZM206.678 302.888L205.446 306.43H208.988L207.756 302.888C207.56 302.328 207.434 301.88 207.322 301.362H207.112C207 301.88 206.874 302.328 206.678 302.888ZM212.885 310V300.34H215.419L219.045 308.922H219.255V300.34H220.571V310H218.093L214.411 301.362H214.201V310H212.885ZM222.224 306.892H223.54C223.75 308.306 224.716 309.02 226.172 309.02C227.32 309.02 228.328 308.544 228.328 307.494C228.328 306.654 227.698 306.234 226.97 306.024L224.856 305.422C223.54 305.044 222.574 304.134 222.574 302.79C222.574 301.194 223.988 300.088 225.906 300.088C227.684 300.088 229.084 300.97 229.476 302.762V303.252H228.23C228.048 302.034 227.236 301.32 225.906 301.32C224.8 301.32 223.932 301.838 223.932 302.734C223.932 303.392 224.394 303.91 225.29 304.162L227.404 304.764C228.706 305.142 229.686 305.982 229.686 307.452C229.686 309.23 228.216 310.252 226.172 310.252C224.016 310.252 222.644 309.16 222.224 307.382V306.892ZM233.794 300.34H235.656L238.988 309.51V310H237.742L236.916 307.634H232.534L231.708 310H230.476V309.51L233.794 300.34ZM234.186 302.888L232.954 306.43H236.496L235.264 302.888C235.068 302.328 234.942 301.88 234.83 301.362H234.62C234.508 301.88 234.382 302.328 234.186 302.888ZM244.195 300.088C246.239 300.088 247.779 301.292 248.325 303.154V303.714H247.037C246.715 302.258 245.665 301.32 244.195 301.32C242.263 301.32 240.891 302.944 240.891 305.17C240.891 307.396 242.263 309.02 244.195 309.02C245.665 309.02 246.757 308.068 247.065 306.598H248.367V307.158C247.807 309.034 246.239 310.252 244.195 310.252C241.465 310.252 239.533 308.11 239.533 305.17C239.533 302.23 241.465 300.088 244.195 300.088ZM248.889 300.34H256.085V301.544H253.145V310H251.829V301.544H248.889V300.34ZM257.373 310V300.34H258.689V310H257.373ZM265.059 300.088C267.803 300.088 269.749 302.23 269.749 305.17C269.749 308.11 267.803 310.252 265.059 310.252C262.315 310.252 260.369 308.11 260.369 305.17C260.369 302.23 262.315 300.088 265.059 300.088ZM265.059 301.32C263.113 301.32 261.727 302.944 261.727 305.17C261.727 307.396 263.113 309.02 265.059 309.02C267.005 309.02 268.391 307.396 268.391 305.17C268.391 302.944 267.005 301.32 265.059 301.32ZM271.428 310V300.34H273.962L277.588 308.922H277.798V300.34H279.114V310H276.636L272.954 301.362H272.744V310H271.428ZM280.767 306.892H282.083C282.293 308.306 283.259 309.02 284.715 309.02C285.863 309.02 286.871 308.544 286.871 307.494C286.871 306.654 286.241 306.234 285.513 306.024L283.399 305.422C282.083 305.044 281.117 304.134 281.117 302.79C281.117 301.194 282.531 300.088 284.449 300.088C286.227 300.088 287.627 300.97 288.019 302.762V303.252H286.773C286.591 302.034 285.779 301.32 284.449 301.32C283.343 301.32 282.475 301.838 282.475 302.734C282.475 303.392 282.937 303.91 283.833 304.162L285.947 304.764C287.249 305.142 288.229 305.982 288.229 307.452C288.229 309.23 286.759 310.252 284.715 310.252C282.559 310.252 281.187 309.16 280.767 307.382V306.892Z" fill="white"/>
<path d="M299.327 298.154C299.351 297.949 299.649 297.949 299.673 298.154L299.878 299.878C300.142 302.103 301.897 303.858 304.122 304.122L305.846 304.327C306.051 304.351 306.051 304.649 305.846 304.673L304.122 304.878C301.897 305.142 300.142 306.897 299.878 309.122L299.673 310.846C299.649 311.051 299.351 311.051 299.327 310.846L299.122 309.122C298.858 306.897 297.103 305.142 294.878 304.878L293.154 304.673C292.949 304.649 292.949 304.351 293.154 304.327L294.878 304.122C297.103 303.858 298.858 302.103 299.122 299.878L299.327 298.154Z" fill="white"/>
<path d="M311.244 310V300.34H312.56V304.358H317.404V300.34H318.72V310H317.404V305.562H312.56V310H311.244ZM320.7 306.29V300.34H322.016V306.332C322.016 308.04 322.898 309.02 324.438 309.02C325.978 309.02 326.86 308.04 326.86 306.332V300.34H328.176V306.29C328.176 308.81 326.818 310.252 324.438 310.252C322.058 310.252 320.7 308.81 320.7 306.29ZM330.153 310V300.34H332.715L334.633 306.43C334.801 306.976 334.913 307.494 335.011 308.054H335.221C335.319 307.494 335.445 306.976 335.613 306.43L337.545 300.34H340.079V310H338.763V301.362H338.539L336.005 309.258H334.213L331.693 301.362H331.469V310H330.153ZM344.8 300.34H346.662L349.994 309.51V310H348.748L347.922 307.634H343.54L342.714 310H341.482V309.51L344.8 300.34ZM345.192 302.888L343.96 306.43H347.502L346.27 302.888C346.074 302.328 345.948 301.88 345.836 301.362H345.626C345.514 301.88 345.388 302.328 345.192 302.888ZM351.399 310V300.34H353.933L357.559 308.922H357.769V300.34H359.085V310H356.607L352.925 301.362H352.715V310H351.399ZM360.878 307.228V306.08H364.434V307.228H360.878ZM366.219 310V300.34H370.377C372.309 300.34 373.429 301.516 373.429 303.014C373.429 304.05 372.897 304.834 371.931 305.212V305.422C372.953 305.688 373.177 306.458 373.177 307.382V310H371.861V307.382C371.861 306.36 371.385 305.94 370.447 305.94H367.535V310H366.219ZM370.223 301.544H367.535V304.736H370.223C371.455 304.736 372.085 304.078 372.085 303.14C372.085 302.202 371.455 301.544 370.223 301.544ZM375.27 310V300.34H381.57V301.544H376.586V304.428H380.968V305.632H376.586V308.796H381.668V310H375.27ZM385.966 300.34H387.828L391.16 309.51V310H389.914L389.088 307.634H384.706L383.88 310H382.648V309.51L385.966 300.34ZM386.358 302.888L385.126 306.43H388.668L387.436 302.888C387.24 302.328 387.114 301.88 387.002 301.362H386.792C386.68 301.88 386.554 302.328 386.358 302.888ZM392.565 310V300.34H395.757C398.865 300.34 400.405 302.314 400.405 305.17C400.405 308.026 398.865 310 395.757 310H392.565ZM393.881 301.544V308.796H395.799C398.109 308.796 399.047 307.214 399.047 305.17C399.047 303.126 398.109 301.544 395.799 301.544H393.881ZM404.464 300.34H406.326L409.658 309.51V310H408.412L407.586 307.634H403.204L402.378 310H401.146V309.51L404.464 300.34ZM404.856 302.888L403.624 306.43H407.166L405.934 302.888C405.738 302.328 405.612 301.88 405.5 301.362H405.29C405.178 301.88 405.052 302.328 404.856 302.888ZM411.063 310V300.34H415.137C416.887 300.34 418.007 301.334 418.007 302.79C418.007 303.714 417.559 304.442 416.677 304.792V304.988C417.783 305.324 418.399 306.178 418.399 307.34C418.399 308.768 417.461 310 415.165 310H411.063ZM414.983 301.544H412.379V304.372H414.983C416.075 304.372 416.677 303.798 416.677 302.958C416.677 302.104 416.089 301.544 414.983 301.544ZM415.165 305.576H412.379V308.796H415.165C416.411 308.796 417.055 308.208 417.055 307.186C417.055 306.206 416.411 305.576 415.165 305.576ZM420.086 310V300.34H421.402V308.796H425.938V310H420.086ZM427.237 310V300.34H433.537V301.544H428.553V304.428H432.935V305.632H428.553V308.796H433.635V310H427.237ZM438.435 306.892H439.751C439.961 308.306 440.927 309.02 442.383 309.02C443.531 309.02 444.539 308.544 444.539 307.494C444.539 306.654 443.909 306.234 443.181 306.024L441.067 305.422C439.751 305.044 438.785 304.134 438.785 302.79C438.785 301.194 440.199 300.088 442.117 300.088C443.895 300.088 445.295 300.97 445.687 302.762V303.252H444.441C444.259 302.034 443.447 301.32 442.117 301.32C441.011 301.32 440.143 301.838 440.143 302.734C440.143 303.392 440.605 303.91 441.501 304.162L443.615 304.764C444.917 305.142 445.897 305.982 445.897 307.452C445.897 309.23 444.427 310.252 442.383 310.252C440.227 310.252 438.855 309.16 438.435 307.382V306.892ZM450.005 300.34H451.867L455.199 309.51V310H453.953L453.127 307.634H448.745L447.919 310H446.687V309.51L450.005 300.34ZM450.397 302.888L449.165 306.43H452.707L451.475 302.888C451.279 302.328 451.153 301.88 451.041 301.362H450.831C450.719 301.88 450.593 302.328 450.397 302.888ZM456.604 310V300.34H462.904V301.544H457.92V304.666H462.302V305.87H457.92V310H456.604ZM464.383 310V300.34H470.683V301.544H465.699V304.428H470.081V305.632H465.699V308.796H470.781V310H464.383ZM475.217 300.34H482.413V301.544H479.473V310H478.157V301.544H475.217V300.34ZM483.701 310V300.34H487.859C489.791 300.34 490.911 301.516 490.911 303.014C490.911 304.05 490.379 304.834 489.413 305.212V305.422C490.435 305.688 490.659 306.458 490.659 307.382V310H489.343V307.382C489.343 306.36 488.867 305.94 487.929 305.94H485.017V310H483.701ZM487.705 301.544H485.017V304.736H487.705C488.937 304.736 489.567 304.078 489.567 303.14C489.567 302.202 488.937 301.544 487.705 301.544ZM495.286 300.34H497.148L500.48 309.51V310H499.234L498.408 307.634H494.026L493.2 310H491.968V309.51L495.286 300.34ZM495.678 302.888L494.446 306.43H497.988L496.756 302.888C496.56 302.328 496.434 301.88 496.322 301.362H496.112C496 301.88 495.874 302.328 495.678 302.888ZM501.885 310V300.34H504.419L508.045 308.922H508.255V300.34H509.571V310H507.093L503.411 301.362H503.201V310H501.885ZM511.224 306.892H512.54C512.75 308.306 513.716 309.02 515.172 309.02C516.32 309.02 517.328 308.544 517.328 307.494C517.328 306.654 516.698 306.234 515.97 306.024L513.856 305.422C512.54 305.044 511.574 304.134 511.574 302.79C511.574 301.194 512.988 300.088 514.906 300.088C516.684 300.088 518.084 300.97 518.476 302.762V303.252H517.23C517.048 302.034 516.236 301.32 514.906 301.32C513.8 301.32 512.932 301.838 512.932 302.734C512.932 303.392 513.394 303.91 514.29 304.162L516.404 304.764C517.706 305.142 518.686 305.982 518.686 307.452C518.686 309.23 517.216 310.252 515.172 310.252C513.016 310.252 511.644 309.16 511.224 307.382V306.892ZM522.794 300.34H524.656L527.988 309.51V310H526.742L525.916 307.634H521.534L520.708 310H519.476V309.51L522.794 300.34ZM523.186 302.888L521.954 306.43H525.496L524.264 302.888C524.068 302.328 523.942 301.88 523.83 301.362H523.62C523.508 301.88 523.382 302.328 523.186 302.888ZM533.195 300.088C535.239 300.088 536.779 301.292 537.325 303.154V303.714H536.037C535.715 302.258 534.665 301.32 533.195 301.32C531.263 301.32 529.891 302.944 529.891 305.17C529.891 307.396 531.263 309.02 533.195 309.02C534.665 309.02 535.757 308.068 536.065 306.598H537.367V307.158C536.807 309.034 535.239 310.252 533.195 310.252C530.465 310.252 528.533 308.11 528.533 305.17C528.533 302.23 530.465 300.088 533.195 300.088ZM537.889 300.34H545.085V301.544H542.145V310H540.829V301.544H537.889V300.34ZM546.373 310V300.34H547.689V310H546.373ZM554.059 300.088C556.803 300.088 558.749 302.23 558.749 305.17C558.749 308.11 556.803 310.252 554.059 310.252C551.315 310.252 549.369 308.11 549.369 305.17C549.369 302.23 551.315 300.088 554.059 300.088ZM554.059 301.32C552.113 301.32 550.727 302.944 550.727 305.17C550.727 307.396 552.113 309.02 554.059 309.02C556.005 309.02 557.391 307.396 557.391 305.17C557.391 302.944 556.005 301.32 554.059 301.32ZM560.428 310V300.34H562.962L566.588 308.922H566.798V300.34H568.114V310H565.636L561.954 301.362H561.744V310H560.428ZM569.767 306.892H571.083C571.293 308.306 572.259 309.02 573.715 309.02C574.863 309.02 575.871 308.544 575.871 307.494C575.871 306.654 575.241 306.234 574.513 306.024L572.399 305.422C571.083 305.044 570.117 304.134 570.117 302.79C570.117 301.194 571.531 300.088 573.449 300.088C575.227 300.088 576.627 300.97 577.019 302.762V303.252H575.773C575.591 302.034 574.779 301.32 573.449 301.32C572.343 301.32 571.475 301.838 571.475 302.734C571.475 303.392 571.937 303.91 572.833 304.162L574.947 304.764C576.249 305.142 577.229 305.982 577.229 307.452C577.229 309.23 575.759 310.252 573.715 310.252C571.559 310.252 570.187 309.16 569.767 307.382V306.892Z" fill="white"/>
</g>
</g>
<defs>
<clipPath id="clip0_4_1853">
<rect width="313" height="438" fill="white" transform="translate(438) rotate(90)"/>
</clipPath>
<clipPath id="clip1_4_1853">
<rect width="451" height="17" fill="white" transform="translate(438 -163) rotate(90)"/>
</clipPath>
<clipPath id="clip2_4_1853">
<rect width="589" height="17" fill="white" transform="translate(17 -266) rotate(90)"/>
</clipPath>
<clipPath id="clip3_4_1853">
<rect width="438" height="17" fill="white" transform="translate(-17)"/>
</clipPath>
<clipPath id="clip4_4_1853">
<rect width="438" height="17" fill="white" transform="translate(21 296)"/>
</clipPath>
</defs>
</svg>
